<svg xmlns="http://www.w3.org/2000/svg" width="192" height="146" viewBox="0 0 192 146"><defs><style type="text/css"/></defs><g transform="translate(36.166161348965176 -266.1005050633883) scale(1)"><g class="relationship"><g transform="translate(117 288) rotate(180)" stroke-width="2" stroke="#000000"><path d="M 12 0 L 101 0"/></g><g transform="translate(60.5 288) rotate(360) translate(0 -10)"><g transform="translate(0 0)"><g transform="translate(-41.70000076293945 0)" fill="#ffffff" stroke="#000000" stroke-width="0"><rect x="0" y="0" width="83.4000015258789" height="20" rx="5" ry="5" stroke="none"/><text xml:space="preserve" x="5" y="13" stroke="none" text-anchor="left" font-family="sans-serif" font-size="10" font-weight="normal" fill="#000000">WHO_TWEETED</text></g></g></g></g><g class="relationship"><g transform="translate(60.5 385.8608706276416) rotate(-120.00000000000001)" stroke-width="2" stroke="#000000"><path d="M 12 0 L 101.00000000000001 0"/></g><g transform="translate(32.249999999999986 336.9304353138208) rotate(59.999999999999986) translate(0 -10)"><g transform="translate(0 0)"><g transform="translate(-31.575000762939453 0)" fill="#ffffff" stroke="#000000" stroke-width="0"><rect x="0" y="0" width="63.150001525878906" height="20" rx="5" ry="5" stroke="none"/><text xml:space="preserve" x="5" y="13" stroke="none" text-anchor="left" font-family="sans-serif" font-size="10" font-weight="normal" fill="#000000">FOLLOWED</text></g></g></g></g><g class="relationship"><g transform="translate(60.5 385.8608706276416) rotate(-60.00000000000001)" stroke-width="2" stroke="#000000"><path d="M 12 0 L 101.00000000000001 0"/></g><g transform="translate(88.75 336.9304353138208) rotate(-60.00000000000001) translate(0 -10)"><g transform="translate(0 0)"><g transform="translate(-18.833333015441895 0)" fill="#ffffff" stroke="#000000" stroke-width="0"><rect x="0" y="0" width="37.66666603088379" height="20" rx="5" ry="5" stroke="none"/><text xml:space="preserve" x="5" y="13" stroke="none" text-anchor="left" font-family="sans-serif" font-size="10" font-weight="normal" fill="#000000">LIKED</text></g></g></g></g><g class="node"><g fill="#73d8ff" stroke="#73d8ff" stroke-width="2"><circle cx="117" cy="288" r="11"/></g><g transform="translate(117 288)"><g transform="translate(9.899494936611665 -21.899494936611664)"><g transform="translate(0 0)"><g fill="#000000" font-family="sans-serif" font-size="10" font-weight="normal" text-anchor="start"><text xml:space="preserve" x="0" y="9" stroke="none">Tweet</text></g></g></g></g></g><g class="node"><g fill="#d33115" stroke="#d33115" stroke-width="2"><circle cx="4" cy="288" r="11"/></g><g transform="translate(4 288)"><g transform="translate(-9.899494936611664 -21.899494936611667)"><g transform="translate(0 0)"><g fill="#000000" font-family="sans-serif" font-size="10" font-weight="normal" text-anchor="end"><text xml:space="preserve" x="0" y="9" stroke="none">Profile</text></g></g></g></g></g><g class="node"><g fill="#d33115" stroke="#d33115" stroke-width="2"><circle cx="60.5" cy="385.8608706276416" r="11"/></g><g transform="translate(60.5 385.8608706276416)"><g transform="translate(8.572527594031472e-16 14)"><g transform="translate(0 0)"><g fill="#000000" font-family="sans-serif" font-size="10" font-weight="normal" text-anchor="middle"><text xml:space="preserve" x="0" y="9" stroke="none">Profile</text></g></g></g></g></g></g></svg>